PathFileType	4	(X/Y/Z)	/Users/itak/Documents/Research/Walk-IL/dataset/trc/00423_00012.trc
DataRate	CameraRate	NumFrames	NumMarkers	Units	OrigDataRate	OrigDataStartFrame	OrigNumFrames
100.000000	100.000000	4	53	mm	100.000000	280	560
Frame#	Time	RPSI			LPSI			L3			STRN			T10			C7			CLAV			RBAK			LBAK			LSHO			LUPA			LAEL			LAOL			LWTS			LWPS			LFRA			LHPS			LHTS			RSHO			RUPA			RAEL			RAOL			RWTS			RWPS			RFRA			RIFD			RHTS			RHPS			RBHD			LFHD			RFHD			LBHD			LHIP			RHIP			RASI			LASI			LKNE			LTHI			LANK			LTIP			LTOE			LMT1			LMT5			LHEE			RKNE			RTHI			RANK			RTIP			RTOE			RMT1			RMT5			RHEE			LIFD			
		X1	Y1	Z1	X2	Y2	Z2	X3	Y3	Z3	X4	Y4	Z4	X5	Y5	Z5	X6	Y6	Z6	X7	Y7	Z7	X8	Y8	Z8	X9	Y9	Z9	X10	Y10	Z10	X11	Y11	Z11	X12	Y12	Z12	X13	Y13	Z13	X14	Y14	Z14	X15	Y15	Z15	X16	Y16	Z16	X17	Y17	Z17	X18	Y18	Z18	X19	Y19	Z19	X20	Y20	Z20	X21	Y21	Z21	X22	Y22	Z22	X23	Y23	Z23	X24	Y24	Z24	X25	Y25	Z25	X26	Y26	Z26	X27	Y27	Z27	X28	Y28	Z28	X29	Y29	Z29	X30	Y30	Z30	X31	Y31	Z31	X32	Y32	Z32	X33	Y33	Z33	X34	Y34	Z34	X35	Y35	Z35	X36	Y36	Z36	X37	Y37	Z37	X38	Y38	Z38	X39	Y39	Z39	X40	Y40	Z40	X41	Y41	Z41	X42	Y42	Z42	X43	Y43	Z43	X44	Y44	Z44	X45	Y45	Z45	X46	Y46	Z46	X47	Y47	Z47	X48	Y48	Z48	X49	Y49	Z49	X50	Y50	Z50	X51	Y51	Z51	X52	Y52	Z52	X53	Y53	Z53	

281	2.8	-614.1582641601562	936.3653564453125	-554.6104125976562	-557.592041015625	928.0230102539062	-675.589111328125	-593.717529296875	1011.113647460938	-609.5682983398438	-385.6664733886719	1167.317749023438	-491.6785888671875	-603.4906005859375	1116.747924804688	-618.681884765625	-561.7326049804688	1364.642456054688	-607.5133056640625	-430.8068542480469	1285.817749023438	-521.1802978515625	-632.564697265625	1221.136840820312	-565.2779541015625	-519.5847778320312	1325.518676757812	-701.5445556640625	-421.5661315917969	1339.530883789062	-701.57373046875	-414.5177917480469	1228.502807617188	-781.1825561523438	-401.7056579589844	1033.899291992188	-815.4046630859375	-480.2738647460938	1014.191833496094	-786.8887329101562	-375.2714233398438	798.9473266601562	-768.2987670898438	-386.1028442382812	805.7373046875	-850.9872436523438	-394.5291137695312	929.5374755859375	-832.8236694335938	-395.3558654785156	719.7903442382812	-855.59375	-370.6680297851562	701.9547119140625	-798.7762451171875	-589.6642456054688	1349.505981445312	-440.9674072265625	-631.1267700195312	1285.30419921875	-393.5178833007812	-621.398681640625	1029.91064453125	-316.7373352050781	-594.6640625	1005.428344726562	-406.0122680664062	-412.6105041503906	920.5059204101562	-243.9313659667969	-461.4100952148438	890.7715454101562	-197.3672485351562	-582.0592041015625	984.990478515625	-277.4823913574219	-321.4113159179688	784.8531494140625	-188.0718841552734	-350.2490234375	852.097412109375	-188.1358795166016	-405.5982666015625	823.2178344726562	-167.3528900146484	-581.57177734375	1548.889038085938	-536.66259765625	-386.3690185546875	1565.230834960938	-558.998291015625	-468.8794860839844	1569.4912109375	-468.9900817871094	-486.2578735351562	1538.651000976562	-665.5618286132812	-426.7972106933594	928.8847045898438	-732.180908203125	-595.2774658203125	909.8142700195312	-414.3975524902344	-454.3634643554688	918.3162231445312	-397.5828247070312	-348.8878784179688	932.9213256835938	-638.7464599609375	-221.7360229492188	486.512451171875	-620.7774047851562	-280.0412902832031	607.8873901367188	-660.625	-181.6665649414062	35.13867568969727	-640.416015625	-190.7558898925781	252.4579467773438	-637.2538452148438	-70.53695678710938	70.05179595947266	-454.4732666015625	-147.5704193115234	53.26279449462891	-481.271240234375	-81.49890899658203	48.08671951293945	-563.3092041015625	-246.9102783203125	31.54629707336426	-621.5476684570312	-564.006103515625	425.6394348144531	-498.7385559082031	-525.0509033203125	674.2238159179688	-414.5517883300781	-793.2785034179688	87.05602264404297	-614.1901245117188	-602.593994140625	305.9110717773438	-538.1557006835938	-628.21240234375	36.5460090637207	-671.93798828125	-694.9365234375	50.32870101928711	-702.8281860351562	-718.0081176757812	49.39805603027344	-606.2957763671875	-859.8575439453125	111.9963226318359	-673.71630859375	-420.1338195800781	630.5130004882812	-815.0338134765625	
282	2.81	-601.9705810546875	936.9100952148438	-552.3220825195312	-544.1947021484375	929.3784790039062	-672.9082641601562	-580.6831665039062	1011.666015625	-606.900146484375	-374.707763671875	1168.571044921875	-487.9291381835938	-591.1148681640625	1117.197998046875	-616.1891479492188	-550.5201416015625	1365.341674804688	-605.0704956054688	-420.1155700683594	1286.947631835938	-517.6334838867188	-621.2113037109375	1221.515502929688	-563.4488525390625	-507.4000549316406	1326.479858398438	-698.9239501953125	-409.5011291503906	1340.790283203125	-697.9773559570312	-401.4014282226562	1229.620361328125	-777.3063354492188	-387.43798828125	1034.83154296875	-810.6109008789062	-466.3583679199219	1015.06494140625	-782.86767578125	-360.9443664550781	800.0538330078125	-762.1156005859375	-370.5093688964844	806.6558837890625	-845.0088500976562	-379.695068359375	930.4391479492188	-827.4703369140625	-379.0819702148438	720.7687377929688	-849.6956787109375	-355.2861328125	703.1083374023438	-792.4840087890625	-579.8478393554688	1350.027221679688	-438.7441711425781	-621.7633666992188	1285.678955078125	-391.8721313476562	-613.5025024414062	1029.614501953125	-317.4332580566406	-585.0269775390625	1006.002136230469	-406.5167236328125	-407.6058349609375	916.533447265625	-241.8823852539062	-457.6529235839844	887.037353515625	-196.7032470703125	-575.6953125	983.8123779296875	-277.9722290039062	-319.8306579589844	778.7251586914062	-185.6665191650391	-347.5263366699219	846.448486328125	-185.6020660400391	-403.7360229492188	818.4111328125	-166.4002532958984	-571.3569946289062	1549.718139648438	-534.4047241210938	-375.9400634765625	1566.211547851562	-554.7371215820312	-459.3375244140625	1570.334594726562	-465.5867614746094	-474.831298828125	1539.701049804688	-662.3716430664062	-412.9252319335938	930.4121704101562	-728.4707641601562	-584.1537475585938	909.85986328125	-412.0367736816406	-443.3982238769531	918.7920532226562	-394.3363952636719	-335.7713317871094	934.5223388671875	-634.4116821289062	-210.6597747802734	487.2012939453125	-613.3978881835938	-268.4101257324219	608.2997436523438	-654.6671752929688	-180.4161529541016	35.80645751953125	-639.6981811523438	-183.2473602294922	252.6198577880859	-632.2716064453125	-69.49184417724609	62.58702850341797	-450.81982421875	-147.1007537841797	49.33098220825195	-479.43359375	-80.48318481445312	44.70281600952148	-560.9800415039062	-245.8831787109375	33.04356384277344	-621.6220092773438	-550.0397338867188	425.63818359375	-494.1960144042969	-512.7893676757812	674.2859497070312	-411.5386657714844	-788.8162231445312	92.68946838378906	-612.7484741210938	-591.9056396484375	307.1167297363281	-533.2453002929688	-628.594482421875	36.57060623168945	-672.0896606445312	-692.3239135742188	52.3918342590332	-701.5900268554688	-715.9747924804688	49.66551208496094	-605.2528076171875	-852.8400268554688	122.4114303588867	-672.2802734375	-403.7693786621094	631.3681640625	-809.6087646484375	
283	2.82	-589.938720703125	937.56982421875	-549.9049682617188	-530.92529296875	931	-670.0585327148438	-567.6572875976562	1012.545166015625	-604.1127319335938	-363.7748718261719	1170.101318359375	-484.0538940429688	-578.65234375	1117.932373046875	-613.6312255859375	-539.272216796875	1366.312255859375	-602.5546264648438	-409.4274597167969	1288.367553710938	-513.9780883789062	-609.8905029296875	1222.195190429688	-561.5938110351562	-495.1610717773438	1327.768432617188	-696.1947021484375	-397.357666015625	1342.379638671875	-694.20361328125	-388.0647277832031	1231.112182617188	-773.2587280273438	-372.8754577636719	1036.108520507812	-805.5343627929688	-452.152099609375	1016.292419433594	-778.6565551757812	-346.1945190429688	801.5724487304688	-755.515869140625	-354.5249633789062	807.8665161132812	-838.5671997070312	-364.5243225097656	931.6777954101562	-821.75	-362.398681640625	722.0172729492188	-843.2263793945312	-339.4341430664062	704.6294555664062	-785.6002197265625	-570.058837890625	1350.833984375	-436.4938354492188	-612.424072265625	1286.359130859375	-390.1788330078125	-605.692138671875	1029.6630859375	-318.2396850585938	-575.376708984375	1006.957885742188	-407.0816345214844	-402.93017578125	912.476806640625	-240.0567932128906	-454.3030090332031	883.3076171875	-196.3577423095703	-569.4131469726562	982.926513671875	-278.6163940429688	-318.9503479003906	772.2736206054688	-183.7513885498047	-345.3511352539062	840.5115966796875	-183.4458618164062	-402.7125549316406	813.5048828125	-165.9646759033203	-561.1615600585938	1550.755859375	-532.05078125	-365.5507507324219	1567.470703125	-550.376708984375	-449.8074035644531	1571.428588867188	-462.0867614746094	-463.4590454101562	1540.994140625	-659.072265625	-399.2323913574219	932.2835083007812	-724.5673217773438	-573.185791015625	910.0277099609375	-409.5338134765625	-432.5931701660156	919.5499877929688	-391.1053466796875	-322.7210998535156	936.4017944335938	-629.9764404296875	-200.1365051269531	487.76708984375	-606.56591796875	-256.9638671875	608.9999389648438	-648.9065551757812	-179.5093994140625	36.46054077148438	-639.1929931640625	-176.3195343017578	252.722412109375	-627.9176635742188	-68.23847961425781	56.32692337036133	-448.2837524414062	-146.3674163818359	46.26280212402344	-478.2114868164062	-79.55788421630859	42.08956909179688	-559.6033935546875	-244.9985198974609	34.2489128112793	-621.6464233398438	-535.2799682617188	425.7781677246094	-488.7526245117188	-500.2626037597656	674.5630493164062	-408.1864318847656	-783.3539428710938	98.91468811035156	-611.0333862304688	-580.346923828125	308.6090698242188	-527.4925537109375	-628.9207153320312	36.50176239013672	-672.1441040039062	-689.0223999023438	54.73630905151367	-700.0697631835938	-713.5856323242188	50.27693557739258	-604.052734375	-844.2168579101562	133.6040954589844	-670.5038452148438	-386.8721313476562	632.5548095703125	-803.4000244140625	
284	2.83	-578.1124877929688	938.3009033203125	-547.4199829101562	-517.8390502929688	932.8247680664062	-667.0867309570312	-554.700927734375	1013.706176757812	-601.2371215820312	-352.9197387695312	1171.842529296875	-480.0111999511719	-566.1183471679688	1118.900756835938	-611.0054321289062	-528.0114135742188	1367.50732421875	-599.968017578125	-398.7816772460938	1290.016967773438	-510.1854858398438	-598.6234741210938	1223.12744140625	-559.7233276367188	-482.8838500976562	1329.31787109375	-693.3123779296875	-385.1339721679688	1344.238891601562	-690.2192993164062	-374.475341796875	1232.920288085938	-768.99609375	-357.9915771484375	1037.679809570312	-800.1582641601562	-437.6572265625	1017.825256347656	-774.2959594726562	-331.0557861328125	803.4486694335938	-748.4915161132812	-338.1539001464844	809.317626953125	-831.6600341796875	-348.9957885742188	933.2036743164062	-815.6541748046875	-345.3341369628906	723.4800415039062	-836.1653442382812	-323.1643371582031	706.4611206054688	-778.1146850585938	-560.3400268554688	1351.876098632812	-434.2222900390625	-603.1622314453125	1287.294677734375	-388.4489135742188	-597.98974609375	1030.015258789062	-319.1339111328125	-565.798095703125	1008.240600585938	-407.6781921386719	-398.57861328125	908.3511962890625	-238.4657287597656	-451.34765625	879.61083984375	-196.32470703125	-563.2235717773438	982.3097534179688	-279.3939819335938	-318.7327575683594	765.56396484375	-182.364990234375	-343.7144775390625	834.3323974609375	-181.7040710449219	-402.4036865234375	808.5399169921875	-166.0314331054688	-550.9981079101562	1551.97021484375	-529.6025390625	-355.2142639160156	1568.9521484375	-545.9151611328125	-440.3023681640625	1572.731567382812	-458.4870300292969	-452.1412353515625	1542.482666015625	-655.657958984375	-385.7537231445312	934.4465942382812	-720.5052490234375	-562.4671020507812	910.2925415039062	-406.9504699707031	-422.0360717773438	920.5392456054688	-387.9074096679688	-309.7872009277344	938.4894409179688	-625.4451293945312	-190.2427215576172	488.1109008789062	-600.38232421875	-245.6808929443359	609.9342041015625	-643.413330078125	-178.89697265625	37.05187606811523	-638.8335571289062	-170.0846252441406	252.6930694580078	-624.1749877929688	-66.94254302978516	51.29379272460938	-446.623291015625	-145.5158996582031	43.95786666870117	-477.4312744140625	-78.74960327148438	40.19517517089844	-558.9151000976562	-244.2688446044922	35.1550178527832	-621.6253662109375	-519.8135986328125	426.0547180175781	-482.3701782226562	-487.5989074707031	675.038818359375	-404.4814453125	-776.77294921875	105.7342681884766	-608.9783325195312	-567.8856811523438	310.3606872558594	-520.903076171875	-628.9755859375	36.29957962036133	-671.9512939453125	-684.9134521484375	57.46726608276367	-698.2025756835938	-710.7352294921875	51.42520904541016	-602.6165161132812	-833.9151611328125	145.4530792236328	-668.3031616210938	-369.5132446289062	634.0380859375	-796.3871459960938	
